<svg width="16" height="15" viewBox="0 0 16 15" fill="none" xmlns="http://www.w3.org/2000/svg">
<path d="M7.58463 2.26048L7.99977 2.87905L8.41495 2.26051C9.13799 1.1833 10.2903 0.5 11.5757 0.5C13.7053 0.5 15.5 2.38641 15.5 4.8C15.5 5.75366 15.0596 6.84077 14.3299 7.97082C13.6063 9.09151 12.633 10.2016 11.6461 11.1896C10.6613 12.1756 9.67458 13.0285 8.93311 13.6354C8.56275 13.9386 8.25447 14.1797 8.03939 14.3446C8.02404 14.3563 8.00917 14.3677 7.99479 14.3787C7.98161 14.3689 7.96802 14.3589 7.95404 14.3485C7.73928 14.1891 7.43138 13.9556 7.06142 13.6608C6.32071 13.0706 5.33506 12.2379 4.35133 11.2659C3.36567 10.292 2.39367 9.1896 1.67106 8.06091C0.943828 6.92499 0.5 5.80999 0.5 4.79996C0.5 3.25192 0.962088 2.19209 1.64648 1.51892C2.33391 0.842755 3.30319 0.5 4.42386 0.5C5.70959 0.5 6.8617 1.1833 7.58463 2.26048Z" stroke="black"/>
</svg>
